<?xml version="1.0" encoding="utf-8" standalone="no"?>
<!DOCTYPE svg PUBLIC "-//W3C//DTD SVG 1.1//EN"
  "http://www.w3.org/Graphics/SVG/1.1/DTD/svg11.dtd">
<svg xmlns:xlink="http://www.w3.org/1999/xlink" width="451.138125pt" height="240.731875pt" viewBox="0 0 451.138125 240.731875" xmlns="http://www.w3.org/2000/svg" version="1.1">
 <metadata>
  <rdf:RDF xmlns:dc="http://purl.org/dc/elements/1.1/" xmlns:cc="http://creativecommons.org/ns#" xmlns:rdf="http://www.w3.org/1999/02/22-rdf-syntax-ns#">
   <cc:Work>
    <dc:type rdf:resource="http://purl.org/dc/dcmitype/StillImage"/>
    <dc:date>2026-09-28T16:20:59.987993</dc:date>
    <dc:format>image/svg+xml</dc:format>
    <dc:creator>
     <cc:Agent>
      <dc:title>Matplotlib v3.9.4, https://matplotlib.org/</dc:title>
     </cc:Agent>
    </dc:creator>
   </cc:Work>
  </rdf:RDF>
 </metadata>
 <defs>
  <style type="text/css">*{stroke-linejoin: round; stroke-linecap: butt}</style>
 </defs>
 <g id="figure_1">
  <g id="patch_1">
   <path d="M 0 240.731875 
L 451.138125 240.731875 
L 451.138125 -0 
L 0 -0 
z
" style="fill: #ffffff"/>
  </g>
  <g id="axes_1">
   <g id="patch_2">
    <path d="M 53.338125 201.24 
L 443.938125 201.24 
L 443.938125 7.2 
L 53.338125 7.2 
z
" style="fill: #ffffff"/>
   </g>
   <g id="matplotlib.axis_1">
    <g id="xtick_1">
     <g id="line2d_1">
      <path d="M 71.09267 201.24 
L 71.09267 7.2 
" clip-path="url(#p0215743111)" style="fill: none; stroke: #b0b0b0; stroke-opacity: 0.18; stroke-width: 0.8; stroke-linecap: square"/>
     </g>
     <g id="line2d_2">
      <defs>
       <path id="mfd828d3f6d" d="M 0 0 
L 0 3.5 
" style="stroke: #000000; stroke-width: 0.8"/>
      </defs>
      <g>
       <use xlink:href="#mfd828d3f6d" x="71.09267" y="201.24" style="stroke: #000000; stroke-width: 0.8"/>
      </g>
     </g>
     <g id="text_1">
      <text style="font: 11px 'DejaVu Sans'; text-anchor: middle" x="71.09267" y="216.598281" transform="rotate(-0 71.09267 216.598281)">−4</text>
     </g>
    </g>
    <g id="xtick_2">
     <g id="line2d_3">
      <path d="M 135.654654 201.24 
L 135.654654 7.2 
" clip-path="url(#p0215743111)" style="fill: none; stroke: #b0b0b0; stroke-opacity: 0.18; stroke-width: 0.8; stroke-linecap: square"/>
     </g>
     <g id="line2d_4">
      <g>
       <use xlink:href="#mfd828d3f6d" x="135.654654" y="201.24" style="stroke: #000000; stroke-width: 0.8"/>
      </g>
     </g>
     <g id="text_2">
      <text style="font: 11px 'DejaVu Sans'; text-anchor: middle" x="135.654654" y="216.598281" transform="rotate(-0 135.654654 216.598281)">−2</text>
     </g>
    </g>
    <g id="xtick_3">
     <g id="line2d_5">
      <path d="M 200.216637 201.24 
L 200.216637 7.2 
" clip-path="url(#p0215743111)" style="fill: none; stroke: #b0b0b0; stroke-opacity: 0.18; stroke-width: 0.8; stroke-linecap: square"/>
     </g>
     <g id="line2d_6">
      <g>
       <use xlink:href="#mfd828d3f6d" x="200.216637" y="201.24" style="stroke: #000000; stroke-width: 0.8"/>
      </g>
     </g>
     <g id="text_3">
      <text style="font: 11px 'DejaVu Sans'; text-anchor: middle" x="200.216637" y="216.598281" transform="rotate(-0 200.216637 216.598281)">0</text>
     </g>
    </g>
    <g id="xtick_4">
     <g id="line2d_7">
      <path d="M 264.778621 201.24 
L 264.778621 7.2 
" clip-path="url(#p0215743111)" style="fill: none; stroke: #b0b0b0; stroke-opacity: 0.18; stroke-width: 0.8; stroke-linecap: square"/>
     </g>
     <g id="line2d_8">
      <g>
       <use xlink:href="#mfd828d3f6d" x="264.778621" y="201.24" style="stroke: #000000; stroke-width: 0.8"/>
      </g>
     </g>
     <g id="text_4">
      <text style="font: 11px 'DejaVu Sans'; text-anchor: middle" x="264.778621" y="216.598281" transform="rotate(-0 264.778621 216.598281)">2</text>
     </g>
    </g>
    <g id="xtick_5">
     <g id="line2d_9">
      <path d="M 329.340604 201.24 
L 329.340604 7.2 
" clip-path="url(#p0215743111)" style="fill: none; stroke: #b0b0b0; stroke-opacity: 0.18; stroke-width: 0.8; stroke-linecap: square"/>
     </g>
     <g id="line2d_10">
      <g>
       <use xlink:href="#mfd828d3f6d" x="329.340604" y="201.24" style="stroke: #000000; stroke-width: 0.8"/>
      </g>
     </g>
     <g id="text_5">
      <text style="font: 11px 'DejaVu Sans'; text-anchor: middle" x="329.340604" y="216.598281" transform="rotate(-0 329.340604 216.598281)">4</text>
     </g>
    </g>
    <g id="xtick_6">
     <g id="line2d_11">
      <path d="M 393.902588 201.24 
L 393.902588 7.2 
" clip-path="url(#p0215743111)" style="fill: none; stroke: #b0b0b0; stroke-opacity: 0.18; stroke-width: 0.8; stroke-linecap: square"/>
     </g>
     <g id="line2d_12">
      <g>
       <use xlink:href="#mfd828d3f6d" x="393.902588" y="201.24" style="stroke: #000000; stroke-width: 0.8"/>
      </g>
     </g>
     <g id="text_6">
      <text style="font: 11px 'DejaVu Sans'; text-anchor: middle" x="393.902588" y="216.598281" transform="rotate(-0 393.902588 216.598281)">6</text>
     </g>
    </g>
    <g id="text_7">
     <text style="font: 11px 'DejaVu Sans'; text-anchor: middle" x="248.638125" y="231.244219" transform="rotate(-0 248.638125 231.244219)">x</text>
    </g>
   </g>
   <g id="matplotlib.axis_2">
    <g id="ytick_1">
     <g id="line2d_13">
      <path d="M 53.338125 192.429782 
L 443.938125 192.429782 
" clip-path="url(#p0215743111)" style="fill: none; stroke: #b0b0b0; stroke-opacity: 0.18; stroke-width: 0.8; stroke-linecap: square"/>
     </g>
     <g id="line2d_14">
      <defs>
       <path id="m5721d571a8" d="M 0 0 
L -3.5 0 
" style="stroke: #000000; stroke-width: 0.8"/>
      </defs>
      <g>
       <use xlink:href="#m5721d571a8" x="53.338125" y="192.429782" style="stroke: #000000; stroke-width: 0.8"/>
      </g>
     </g>
     <g id="text_8">
      <text style="font: 11px 'DejaVu Sans'; text-anchor: end" x="46.338125" y="196.608923" transform="rotate(-0 46.338125 196.608923)">0.00</text>
     </g>
    </g>
    <g id="ytick_2">
     <g id="line2d_15">
      <path d="M 53.338125 157.470595 
L 443.938125 157.470595 
" clip-path="url(#p0215743111)" style="fill: none; stroke: #b0b0b0; stroke-opacity: 0.18; stroke-width: 0.8; stroke-linecap: square"/>
     </g>
     <g id="line2d_16">
      <g>
       <use xlink:href="#m5721d571a8" x="53.338125" y="157.470595" style="stroke: #000000; stroke-width: 0.8"/>
      </g>
     </g>
     <g id="text_9">
      <text style="font: 11px 'DejaVu Sans'; text-anchor: end" x="46.338125" y="161.649736" transform="rotate(-0 46.338125 161.649736)">0.05</text>
     </g>
    </g>
    <g id="ytick_3">
     <g id="line2d_17">
      <path d="M 53.338125 122.511408 
L 443.938125 122.511408 
" clip-path="url(#p0215743111)" style="fill: none; stroke: #b0b0b0; stroke-opacity: 0.18; stroke-width: 0.8; stroke-linecap: square"/>
     </g>
     <g id="line2d_18">
      <g>
       <use xlink:href="#m5721d571a8" x="53.338125" y="122.511408" style="stroke: #000000; stroke-width: 0.8"/>
      </g>
     </g>
     <g id="text_10">
      <text style="font: 11px 'DejaVu Sans'; text-anchor: end" x="46.338125" y="126.690548" transform="rotate(-0 46.338125 126.690548)">0.10</text>
     </g>
    </g>
    <g id="ytick_4">
     <g id="line2d_19">
      <path d="M 53.338125 87.552221 
L 443.938125 87.552221 
" clip-path="url(#p0215743111)" style="fill: none; stroke: #b0b0b0; stroke-opacity: 0.18; stroke-width: 0.8; stroke-linecap: square"/>
     </g>
     <g id="line2d_20">
      <g>
       <use xlink:href="#m5721d571a8" x="53.338125" y="87.552221" style="stroke: #000000; stroke-width: 0.8"/>
      </g>
     </g>
     <g id="text_11">
      <text style="font: 11px 'DejaVu Sans'; text-anchor: end" x="46.338125" y="91.731361" transform="rotate(-0 46.338125 91.731361)">0.15</text>
     </g>
    </g>
    <g id="ytick_5">
     <g id="line2d_21">
      <path d="M 53.338125 52.593033 
L 443.938125 52.593033 
" clip-path="url(#p0215743111)" style="fill: none; stroke: #b0b0b0; stroke-opacity: 0.18; stroke-width: 0.8; stroke-linecap: square"/>
     </g>
     <g id="line2d_22">
      <g>
       <use xlink:href="#m5721d571a8" x="53.338125" y="52.593033" style="stroke: #000000; stroke-width: 0.8"/>
      </g>
     </g>
     <g id="text_12">
      <text style="font: 11px 'DejaVu Sans'; text-anchor: end" x="46.338125" y="56.772174" transform="rotate(-0 46.338125 56.772174)">0.20</text>
     </g>
    </g>
    <g id="ytick_6">
     <g id="line2d_23">
      <path d="M 53.338125 17.633846 
L 443.938125 17.633846 
" clip-path="url(#p0215743111)" style="fill: none; stroke: #b0b0b0; stroke-opacity: 0.18; stroke-width: 0.8; stroke-linecap: square"/>
     </g>
     <g id="line2d_24">
      <g>
       <use xlink:href="#m5721d571a8" x="53.338125" y="17.633846" style="stroke: #000000; stroke-width: 0.8"/>
      </g>
     </g>
     <g id="text_13">
      <text style="font: 11px 'DejaVu Sans'; text-anchor: end" x="46.338125" y="21.812987" transform="rotate(-0 46.338125 21.812987)">0.25</text>
     </g>
    </g>
    <g id="text_14">
     <text style="font: 11px 'DejaVu Sans'; text-anchor: middle" x="15.558281" y="104.22" transform="rotate(-90 15.558281 104.22)">Density</text>
    </g>
   </g>
   <g id="line2d_25">
    <path d="M 71.09267 185.238786 
L 74.650696 183.872757 
L 78.208721 182.296592 
L 81.766746 180.488274 
L 85.324771 178.425472 
L 88.882796 176.085952 
L 92.440821 173.448063 
L 95.998846 170.491287 
L 99.556872 167.196851 
L 103.114897 163.548388 
L 106.672922 159.532639 
L 110.230947 155.140176 
L 113.788972 150.366129 
L 117.346997 145.210893 
L 120.905022 139.680795 
L 124.463048 133.788689 
L 128.732678 126.268817 
L 133.002308 118.305141 
L 137.983543 108.539973 
L 144.387988 95.438214 
L 160.754904 61.592376 
L 165.024534 53.338415 
L 168.582559 46.844014 
L 172.140584 40.785076 
L 174.987005 36.304076 
L 177.833425 32.189792 
L 180.679845 28.477775 
L 183.526265 25.200665 
L 185.66108 23.045975 
L 187.795895 21.163396 
L 189.93071 19.562571 
L 192.065525 18.251755 
L 194.20034 17.237747 
L 196.335155 16.52583 
L 198.469971 16.119724 
L 200.604786 16.021559 
L 202.739601 16.231847 
L 204.874416 16.749487 
L 207.009231 17.571769 
L 209.144046 18.694399 
L 211.278861 20.111538 
L 213.413676 21.815849 
L 215.548491 23.798563 
L 217.683306 26.049555 
L 220.529726 29.448327 
L 223.376146 33.273422 
L 226.222567 37.491356 
L 229.068987 42.065871 
L 232.627012 48.226605 
L 236.896642 56.164088 
L 241.877877 65.997136 
L 248.282322 79.20007 
L 261.802818 107.240334 
L 267.495658 118.428816 
L 271.765288 126.386208 
L 276.034919 133.898943 
L 280.304549 140.918788 
L 283.862574 146.36796 
L 287.420599 151.440351 
L 290.978624 156.130985 
L 294.536649 160.440671 
L 298.094674 164.375337 
L 301.6527 167.945308 
L 305.210725 171.164583 
L 308.76875 174.050112 
L 312.326775 176.621104 
L 315.8848 178.898375 
L 319.442825 180.903746 
L 323.00085 182.659512 
L 326.558876 184.18797 
L 330.828506 185.752859 
L 335.098136 187.058339 
L 339.367766 188.138702 
L 344.349001 189.156773 
L 349.330236 189.956968 
L 355.023077 190.655687 
L 361.427522 191.226749 
L 369.255177 191.697288 
L 379.217648 192.053259 
L 392.738143 192.286202 
L 414.797899 192.404165 
L 426.18358 192.42 
L 426.18358 192.42 
" clip-path="url(#p0215743111)" style="fill: none; stroke: #dc4b50; stroke-width: 1.5; stroke-linecap: square"/>
   </g>
   <g id="line2d_26">
    <path d="M 71.09267 192.42 
L 104.538107 192.286202 
L 119.481812 192.01474 
L 129.444283 191.626736 
L 137.271938 191.116502 
L 143.676383 190.499872 
L 149.369224 189.74814 
L 154.350459 188.890014 
L 159.331694 187.801579 
L 163.601324 186.649836 
L 167.870954 185.261813 
L 171.428979 183.899403 
L 174.987005 182.327254 
L 178.54503 180.523356 
L 182.103055 178.465381 
L 185.66108 176.131088 
L 189.219105 173.498811 
L 192.77713 170.548007 
L 196.335155 167.259865 
L 199.893181 163.617967 
L 203.451206 159.608993 
L 207.009231 155.223438 
L 210.567256 150.456342 
L 214.125281 145.307999 
L 217.683306 139.784623 
L 221.241331 133.898943 
L 225.510962 126.386208 
L 229.780592 118.428816 
L 234.761827 108.669581 
L 241.166272 95.572662 
L 257.533188 61.720628 
L 261.802818 53.460025 
L 266.072448 45.707662 
L 269.630473 39.736401 
L 272.476893 35.335491 
L 275.323314 31.309606 
L 278.169734 27.69368 
L 281.016154 24.519623 
L 283.150969 22.446293 
L 285.285784 20.648138 
L 287.420599 19.134388 
L 289.555414 17.912864 
L 291.690229 16.989912 
L 293.825044 16.370344 
L 295.959859 16.057403 
L 298.094674 16.052728 
L 300.22949 16.356344 
L 302.364305 16.966659 
L 304.49912 17.880481 
L 306.633935 19.093043 
L 308.76875 20.598045 
L 310.903565 22.38771 
L 313.03838 24.45285 
L 315.173195 26.782944 
L 318.019615 30.281386 
L 320.866035 34.19881 
L 323.712455 38.501059 
L 327.270481 44.363727 
L 330.828506 50.693537 
L 335.098136 58.793103 
L 340.079371 68.758104 
L 347.907026 85.024434 
L 357.869497 105.672562 
L 363.562337 116.938997 
L 368.543572 126.268817 
L 372.813202 133.788689 
L 377.082833 140.816285 
L 380.640858 146.272222 
L 384.198883 151.351527 
L 387.756908 156.049111 
L 391.314933 160.365686 
L 394.872958 164.30709 
L 398.430983 167.883577 
L 401.989009 171.109085 
L 405.547034 174.000516 
L 409.105059 176.577045 
L 412.663084 178.859464 
L 416.221109 180.86958 
L 419.779134 182.629685 
L 423.337159 184.162078 
L 426.18358 185.238786 
L 426.18358 185.238786 
" clip-path="url(#p0215743111)" style="fill: none; stroke: #366bd5; stroke-width: 1.5; stroke-linecap: square"/>
   </g>
   <g id="line2d_27">
    <path d="M 248.638125 201.24 
L 248.638125 7.2 
" clip-path="url(#p0215743111)" style="fill: none; stroke-dasharray: 5.55,2.4; stroke-dashoffset: 0; stroke: #555555; stroke-width: 1.5"/>
   </g>
   <g id="patch_3">
    <path d="M 53.338125 201.24 
L 53.338125 7.2 
" style="fill: none; stroke: #000000; stroke-width: 0.8; stroke-linejoin: miter; stroke-linecap: square"/>
   </g>
   <g id="patch_4">
    <path d="M 53.338125 201.24 
L 443.938125 201.24 
" style="fill: none; stroke: #000000; stroke-width: 0.8; stroke-linejoin: miter; stroke-linecap: square"/>
   </g>
   <g id="legend_1">
    <g id="patch_5">
     <path d="M 294.054375 125.385469 
L 437.638125 125.385469 
Q 439.438125 125.385469 439.438125 123.585469 
L 439.438125 84.854531 
Q 439.438125 83.054531 437.638125 83.054531 
L 294.054375 83.054531 
Q 292.254375 83.054531 292.254375 84.854531 
L 292.254375 123.585469 
Q 292.254375 125.385469 294.054375 125.385469 
z
" style="fill: #ffffff; opacity: 0.8; stroke: #cccccc; stroke-linejoin: miter"/>
    </g>
    <g id="line2d_28">
     <path d="M 295.854375 90.343125 
L 304.854375 90.343125 
L 313.854375 90.343125 
" style="fill: none; stroke: #dc4b50; stroke-width: 1.5; stroke-linecap: square"/>
    </g>
    <g id="text_15">
     <text style="font: 9px 'DejaVu Sans'; text-anchor: start" x="321.054375" y="93.493125" transform="rotate(-0 321.054375 93.493125)">A: mean 0, variance 2.5</text>
    </g>
    <g id="line2d_29">
     <path d="M 295.854375 103.553437 
L 304.854375 103.553437 
L 313.854375 103.553437 
" style="fill: none; stroke: #366bd5; stroke-width: 1.5; stroke-linecap: square"/>
    </g>
    <g id="text_16">
     <text style="font: 9px 'DejaVu Sans'; text-anchor: start" x="321.054375" y="106.703437" transform="rotate(-0 321.054375 106.703437)">B: mean 3, variance 2.5</text>
    </g>
    <g id="line2d_30">
     <path d="M 295.854375 116.76375 
L 304.854375 116.76375 
L 313.854375 116.76375 
" style="fill: none; stroke-dasharray: 5.55,2.4; stroke-dashoffset: 0; stroke: #555555; stroke-width: 1.5"/>
    </g>
    <g id="text_17">
     <text style="font: 9px 'DejaVu Sans'; text-anchor: start" x="321.054375" y="119.91375" transform="rotate(-0 321.054375 119.91375)">Equal-prior boundary: 1.5</text>
    </g>
   </g>
  </g>
 </g>
 <defs>
  <clipPath id="p0215743111">
   <rect x="53.338125" y="7.2" width="390.6" height="194.04"/>
  </clipPath>
 </defs>
</svg>
