<svg xmlns="http://www.w3.org/2000/svg" width="690" height="580" viewBox="0 0 690 580"><rect width="100%" height="100%" fill="white"/><path d="M160 61.0 H193.0 C237.22 61.0 237.22 109.0 193.0 109.0 H160 Z" stroke="#243b53" stroke-width="2" fill="none" stroke-linejoin="round"/><path d="M105 73.0 L160 73.0" stroke="#243b53" stroke-width="2" fill="none" stroke-linejoin="round"/><path d="M105 85.0 L160 85.0" stroke="#243b53" stroke-width="2" fill="none" stroke-linejoin="round"/><path d="M105 97.0 L160 97.0" stroke="#243b53" stroke-width="2" fill="none" stroke-linejoin="round"/><path d="M160 143.0 H193.0 C237.22 143.0 237.22 191.0 193.0 191.0 H160 Z" stroke="#243b53" stroke-width="2" fill="none" stroke-linejoin="round"/><path d="M105 155.0 L160 155.0" stroke="#243b53" stroke-width="2" fill="none" stroke-linejoin="round"/><path d="M105 167.0 L160 167.0" stroke="#243b53" stroke-width="2" fill="none" stroke-linejoin="round"/><path d="M105 179.0 L160 179.0" stroke="#243b53" stroke-width="2" fill="none" stroke-linejoin="round"/><path d="M160 225.0 H193.0 C237.22 225.0 237.22 273.0 193.0 273.0 H160 Z" stroke="#243b53" stroke-width="2" fill="none" stroke-linejoin="round"/><path d="M105 241.0 L160 241.0" stroke="#243b53" stroke-width="2" fill="none" stroke-linejoin="round"/><path d="M105 257.0 L160 257.0" stroke="#243b53" stroke-width="2" fill="none" stroke-linejoin="round"/><path d="M410 140.0 Q450.92 140.0 476 167 Q450.92 194.0 410 194.0 Q428 167 410 140.0 Z" stroke="#243b53" stroke-width="2" fill="none" stroke-linejoin="round"/><path d="M226 85 L300 85 L300 153.5 L415 153.5" stroke="#243b53" stroke-width="2" fill="none" stroke-linejoin="round"/><path d="M226 167 L320 167 L320 167.0 L415 167.0" stroke="#243b53" stroke-width="2" fill="none" stroke-linejoin="round"/><path d="M226 249 L340 249 L340 180.5 L415 180.5" stroke="#243b53" stroke-width="2" fill="none" stroke-linejoin="round"/><path d="M476 167 L546 167" stroke="#243b53" stroke-width="2" fill="none" stroke-linejoin="round"/><path d="M160 396.0 H193.0 C237.22 396.0 237.22 444.0 193.0 444.0 H160 Z" stroke="#243b53" stroke-width="2" fill="none" stroke-linejoin="round"/><path d="M105 412.0 L160 412.0" stroke="#243b53" stroke-width="2" fill="none" stroke-linejoin="round"/><path d="M105 428.0 L160 428.0" stroke="#243b53" stroke-width="2" fill="none" stroke-linejoin="round"/><path d="M160 478.0 H193.0 C237.22 478.0 237.22 526.0 193.0 526.0 H160 Z" stroke="#243b53" stroke-width="2" fill="none" stroke-linejoin="round"/><path d="M105 494.0 L160 494.0" stroke="#243b53" stroke-width="2" fill="none" stroke-linejoin="round"/><path d="M105 510.0 L160 510.0" stroke="#243b53" stroke-width="2" fill="none" stroke-linejoin="round"/><path d="M410 437.0 Q450.92 437.0 476 461 Q450.92 485.0 410 485.0 Q428 461 410 437.0 Z" stroke="#243b53" stroke-width="2" fill="none" stroke-linejoin="round"/><path d="M226 420 L300 420 L300 453.0 L415 453.0" stroke="#243b53" stroke-width="2" fill="none" stroke-linejoin="round"/><path d="M226 502 L320 502 L320 469.0 L415 469.0" stroke="#243b53" stroke-width="2" fill="none" stroke-linejoin="round"/><path d="M476 461 L546 461" stroke="#243b53" stroke-width="2" fill="none" stroke-linejoin="round"/><text x="340" y="30" font-family="Arial,sans-serif" font-size="20" text-anchor="middle" fill="#172b4d">F = X′Y′Z + X′YZ + XY′</text><text x="97" y="78.0" font-family="Arial,sans-serif" font-size="14" text-anchor="end" fill="#172b4d">X′</text><text x="97" y="90.0" font-family="Arial,sans-serif" font-size="14" text-anchor="end" fill="#172b4d">Y′</text><text x="97" y="102.0" font-family="Arial,sans-serif" font-size="14" text-anchor="end" fill="#172b4d">Z</text><text x="97" y="160.0" font-family="Arial,sans-serif" font-size="14" text-anchor="end" fill="#172b4d">X′</text><text x="97" y="172.0" font-family="Arial,sans-serif" font-size="14" text-anchor="end" fill="#172b4d">Y</text><text x="97" y="184.0" font-family="Arial,sans-serif" font-size="14" text-anchor="end" fill="#172b4d">Z</text><text x="97" y="246.0" font-family="Arial,sans-serif" font-size="14" text-anchor="end" fill="#172b4d">X</text><text x="97" y="262.0" font-family="Arial,sans-serif" font-size="14" text-anchor="end" fill="#172b4d">Y′</text><text x="554" y="172" font-family="Arial,sans-serif" font-size="16" text-anchor="start" fill="#172b4d">F</text><text x="340" y="365" font-family="Arial,sans-serif" font-size="20" text-anchor="middle" fill="#172b4d">F = X′Z + XY′</text><text x="97" y="417.0" font-family="Arial,sans-serif" font-size="14" text-anchor="end" fill="#172b4d">X′</text><text x="97" y="433.0" font-family="Arial,sans-serif" font-size="14" text-anchor="end" fill="#172b4d">Z</text><text x="97" y="499.0" font-family="Arial,sans-serif" font-size="14" text-anchor="end" fill="#172b4d">X</text><text x="97" y="515.0" font-family="Arial,sans-serif" font-size="14" text-anchor="end" fill="#172b4d">Y′</text><text x="554" y="466" font-family="Arial,sans-serif" font-size="16" text-anchor="start" fill="#172b4d">F</text></svg>