<svg xmlns="http://www.w3.org/2000/svg" width="820" height="570" viewBox="0 0 820 570"><rect width="100%" height="100%" fill="white"/><path d="M205 61.0 H238.0 C282.22 61.0 282.22 109.0 238.0 109.0 H205 Z" stroke="#243b53" stroke-width="2" fill="none" stroke-linejoin="round"/><path d="M125 77.0 L205 77.0" stroke="#243b53" stroke-width="2" fill="none" stroke-linejoin="round"/><path d="M125 93.0 L205 93.0" stroke="#243b53" stroke-width="2" fill="none" stroke-linejoin="round"/><path d="M205 146.0 H238.0 C282.22 146.0 282.22 194.0 238.0 194.0 H205 Z" stroke="#243b53" stroke-width="2" fill="none" stroke-linejoin="round"/><path d="M125 162.0 L205 162.0" stroke="#243b53" stroke-width="2" fill="none" stroke-linejoin="round"/><path d="M125 178.0 L205 178.0" stroke="#243b53" stroke-width="2" fill="none" stroke-linejoin="round"/><path d="M490 103.0 Q530.92 103.0 556 127 Q530.92 151.0 490 151.0 Q508 127 490 103.0 Z" stroke="#243b53" stroke-width="2" fill="none" stroke-linejoin="round"/><path d="M271 85 L383.0 85 L383.0 119.0 L495 119.0" stroke="#243b53" stroke-width="2" fill="none" stroke-linejoin="round"/><path d="M271 170 L383.0 170 L383.0 135.0 L495 135.0" stroke="#243b53" stroke-width="2" fill="none" stroke-linejoin="round"/><path d="M556 127 L646 127" stroke="#243b53" stroke-width="2" fill="none" stroke-linejoin="round"/><path d="M205 271.0 H238.0 C282.22 271.0 282.22 319.0 238.0 319.0 H205 Z" stroke="#243b53" stroke-width="2" fill="none" stroke-linejoin="round"/><path d="M125 283.0 L205 283.0" stroke="#243b53" stroke-width="2" fill="none" stroke-linejoin="round"/><path d="M125 295.0 L205 295.0" stroke="#243b53" stroke-width="2" fill="none" stroke-linejoin="round"/><path d="M125 307.0 L205 307.0" stroke="#243b53" stroke-width="2" fill="none" stroke-linejoin="round"/><path d="M205 341.0 H238.0 C282.22 341.0 282.22 389.0 238.0 389.0 H205 Z" stroke="#243b53" stroke-width="2" fill="none" stroke-linejoin="round"/><path d="M125 353.0 L205 353.0" stroke="#243b53" stroke-width="2" fill="none" stroke-linejoin="round"/><path d="M125 365.0 L205 365.0" stroke="#243b53" stroke-width="2" fill="none" stroke-linejoin="round"/><path d="M125 377.0 L205 377.0" stroke="#243b53" stroke-width="2" fill="none" stroke-linejoin="round"/><path d="M205 411.0 H238.0 C282.22 411.0 282.22 459.0 238.0 459.0 H205 Z" stroke="#243b53" stroke-width="2" fill="none" stroke-linejoin="round"/><path d="M125 423.0 L205 423.0" stroke="#243b53" stroke-width="2" fill="none" stroke-linejoin="round"/><path d="M125 435.0 L205 435.0" stroke="#243b53" stroke-width="2" fill="none" stroke-linejoin="round"/><path d="M125 447.0 L205 447.0" stroke="#243b53" stroke-width="2" fill="none" stroke-linejoin="round"/><path d="M205 481.0 H238.0 C282.22 481.0 282.22 529.0 238.0 529.0 H205 Z" stroke="#243b53" stroke-width="2" fill="none" stroke-linejoin="round"/><path d="M125 493.0 L205 493.0" stroke="#243b53" stroke-width="2" fill="none" stroke-linejoin="round"/><path d="M125 505.0 L205 505.0" stroke="#243b53" stroke-width="2" fill="none" stroke-linejoin="round"/><path d="M125 517.0 L205 517.0" stroke="#243b53" stroke-width="2" fill="none" stroke-linejoin="round"/><path d="M525 357.5 Q565.92 357.5 591 400 Q565.92 442.5 525 442.5 Q543 400 525 357.5 Z" stroke="#243b53" stroke-width="2" fill="none" stroke-linejoin="round"/><path d="M271 295 L345 295 L345 374.5 L530 374.5" stroke="#243b53" stroke-width="2" fill="none" stroke-linejoin="round"/><path d="M271 365 L377 365 L377 391.5 L530 391.5" stroke="#243b53" stroke-width="2" fill="none" stroke-linejoin="round"/><path d="M271 435 L409 435 L409 408.5 L530 408.5" stroke="#243b53" stroke-width="2" fill="none" stroke-linejoin="round"/><path d="M271 505 L441 505 L441 425.5 L530 425.5" stroke="#243b53" stroke-width="2" fill="none" stroke-linejoin="round"/><path d="M591 400 L681 400" stroke="#243b53" stroke-width="2" fill="none" stroke-linejoin="round"/><text x="400" y="30" font-family="Arial,sans-serif" font-size="20" text-anchor="middle" fill="#172b4d">2-to-1 selector</text><text x="117" y="82.0" font-family="Arial,sans-serif" font-size="14" text-anchor="end" fill="#172b4d">I0</text><text x="117" y="98.0" font-family="Arial,sans-serif" font-size="14" text-anchor="end" fill="#172b4d">S0′</text><text x="313" y="90" font-family="Arial,sans-serif" font-size="16" text-anchor="middle" fill="#172b4d"></text><text x="117" y="167.0" font-family="Arial,sans-serif" font-size="14" text-anchor="end" fill="#172b4d">I1</text><text x="117" y="183.0" font-family="Arial,sans-serif" font-size="14" text-anchor="end" fill="#172b4d">S0</text><text x="313" y="175" font-family="Arial,sans-serif" font-size="16" text-anchor="middle" fill="#172b4d"></text><text x="654" y="132" font-family="Arial,sans-serif" font-size="16" text-anchor="start" fill="#172b4d">Y</text><text x="400" y="245" font-family="Arial,sans-serif" font-size="20" text-anchor="middle" fill="#172b4d">4-to-1 selector</text><text x="117" y="288.0" font-family="Arial,sans-serif" font-size="14" text-anchor="end" fill="#172b4d">I0</text><text x="117" y="300.0" font-family="Arial,sans-serif" font-size="14" text-anchor="end" fill="#172b4d">S1′</text><text x="117" y="312.0" font-family="Arial,sans-serif" font-size="14" text-anchor="end" fill="#172b4d">S0′</text><text x="117" y="358.0" font-family="Arial,sans-serif" font-size="14" text-anchor="end" fill="#172b4d">I1</text><text x="117" y="370.0" font-family="Arial,sans-serif" font-size="14" text-anchor="end" fill="#172b4d">S1′</text><text x="117" y="382.0" font-family="Arial,sans-serif" font-size="14" text-anchor="end" fill="#172b4d">S0</text><text x="117" y="428.0" font-family="Arial,sans-serif" font-size="14" text-anchor="end" fill="#172b4d">I2</text><text x="117" y="440.0" font-family="Arial,sans-serif" font-size="14" text-anchor="end" fill="#172b4d">S1</text><text x="117" y="452.0" font-family="Arial,sans-serif" font-size="14" text-anchor="end" fill="#172b4d">S0′</text><text x="117" y="498.0" font-family="Arial,sans-serif" font-size="14" text-anchor="end" fill="#172b4d">I3</text><text x="117" y="510.0" font-family="Arial,sans-serif" font-size="14" text-anchor="end" fill="#172b4d">S1</text><text x="117" y="522.0" font-family="Arial,sans-serif" font-size="14" text-anchor="end" fill="#172b4d">S0</text><text x="689" y="405" font-family="Arial,sans-serif" font-size="16" text-anchor="start" fill="#172b4d">Y</text></svg>