<svg xmlns="http://www.w3.org/2000/svg" width="340" height="270" viewBox="0 0 340 270"><rect width="100%" height="100%" fill="white"/><g stroke="#25465b" stroke-width="2.3" fill="none" stroke-linejoin="round"><path d="M45 215 L195 215"/><path d="M45 215 L45 85"/><path d="M45 215 L110 165" stroke-dasharray="6 5"/><path d="M195 215 L195 85"/><path d="M195 215 L260 165"/><path d="M45 85 L195 85"/><path d="M45 85 L110 35"/><path d="M195 85 L260 35"/><path d="M110 165 L260 165" stroke-dasharray="6 5"/><path d="M110 165 L110 35" stroke-dasharray="6 5"/><path d="M260 165 L260 35"/><path d="M110 35 L260 35"/><circle cx="45" cy="215" r="4.5" fill="white"/><circle cx="195" cy="215" r="4.5" fill="white"/><circle cx="45" cy="85" r="4.5" fill="white"/><circle cx="195" cy="85" r="4.5" fill="white"/><circle cx="110" cy="165" r="4.5" fill="white"/><circle cx="260" cy="165" r="4.5" fill="white"/><circle cx="110" cy="35" r="4.5" fill="white"/><circle cx="260" cy="35" r="4.5" fill="white"/></g><text x="45" y="237" font-family="Arial,sans-serif" font-size="16" text-anchor="middle" fill="#182f40">000</text><text x="195" y="237" font-family="Arial,sans-serif" font-size="16" text-anchor="middle" fill="#182f40">001</text><text x="45" y="75" font-family="Arial,sans-serif" font-size="16" text-anchor="middle" fill="#182f40">010</text><text x="195" y="75" font-family="Arial,sans-serif" font-size="16" text-anchor="middle" fill="#182f40">011</text><text x="110" y="187" font-family="Arial,sans-serif" font-size="16" text-anchor="middle" fill="#182f40">100</text><text x="260" y="187" font-family="Arial,sans-serif" font-size="16" text-anchor="middle" fill="#182f40">101</text><text x="110" y="25" font-family="Arial,sans-serif" font-size="16" text-anchor="middle" fill="#182f40">110</text><text x="260" y="25" font-family="Arial,sans-serif" font-size="16" text-anchor="middle" fill="#182f40">111</text></svg>